<svg xmlns="http://www.w3.org/2000/svg" width="420" height="120" viewBox="0 0 420 120">
    <g fill="none" fill-rule="evenodd">
        <g>
            <g>
                <path fill="#434242" d="M409.237 79.196c2.882-2.865 4.323-6.328 4.323-10.393 0-4.064-1.441-7.528-4.323-10.392-2.883-2.865-6.368-4.298-10.457-4.298-4.09 0-7.575 1.433-10.457 4.298-2.882 2.864-4.324 6.328-4.324 10.392 0 4.065 1.442 7.528 4.324 10.393 2.882 2.865 6.367 4.298 10.457 4.298 4.089 0 7.574-1.433 10.457-4.298zm4.175-24.936c4.041 4.016 6.06 8.863 6.06 14.543v35.257c0 .806-.29 1.498-.87 2.073-.579.576-1.274.864-2.086.864-.813 0-1.509-.288-2.086-.864-.581-.575-.87-1.267-.87-2.073V83.2l-.148.145c-4.04 4.015-8.916 6.024-14.632 6.024-5.714 0-10.591-2.009-14.633-6.024-4.039-4.015-6.059-8.862-6.059-14.542s2.02-10.527 6.06-14.543c4.04-4.016 8.918-6.022 14.632-6.022 5.716 0 10.593 2.006 14.632 6.022zM355.81 79.196c2.882-2.865 4.323-6.328 4.323-10.393 0-4.064-1.441-7.528-4.323-10.392-2.882-2.865-6.368-4.298-10.456-4.298-4.09 0-7.575 1.433-10.457 4.298-2.882 2.864-4.324 6.328-4.324 10.392 0 4.065 1.442 7.528 4.324 10.393 2.882 2.865 6.367 4.298 10.457 4.298 4.088 0 7.574-1.433 10.456-4.298zm4.175-24.936c4.041 4.016 6.062 8.863 6.062 14.543s-2.02 10.527-6.062 14.542c-4.039 4.015-8.916 6.024-14.631 6.024s-10.591-2.009-14.633-6.024c-4.039-4.015-6.059-8.862-6.059-14.542s2.02-10.527 6.06-14.543c4.04-4.016 8.917-6.022 14.632-6.022s10.592 2.006 14.631 6.022zm-50.32 35.109h-5.91c-.813 0-1.511-.287-2.088-.864-.58-.573-.87-1.265-.87-2.073V33.548c0-.81.29-1.499.87-2.074.577-.576 1.275-.864 2.087-.864.813 0 1.507.288 2.086.864.58.575.87 1.265.87 2.074v49.946h2.955c.813 0 1.509.288 2.088.863.58.576.868 1.266.868 2.075 0 .808-.289 1.5-.868 2.073-.579.577-1.275.864-2.088.864zm-31.144-10.173c2.883-2.865 4.322-6.328 4.322-10.393 0-4.064-1.439-7.528-4.322-10.392-2.882-2.865-6.368-4.298-10.457-4.298-4.088 0-7.574 1.433-10.456 4.298-2.882 2.864-4.324 6.328-4.324 10.392 0 4.065 1.442 7.528 4.324 10.393 2.882 2.865 6.368 4.298 10.456 4.298 4.09 0 7.575-1.433 10.457-4.298zm4.175-24.936c4.04 4.016 6.06 8.863 6.06 14.543s-2.02 10.527-6.06 14.542c-4.04 4.015-8.917 6.024-14.632 6.024s-10.592-2.009-14.631-6.024c-4.041-4.015-6.062-8.862-6.062-14.542V33.475c0-.81.289-1.5.87-2.075.578-.574 1.273-.864 2.089-.864.811 0 1.505.29 2.085.864.579.576.87 1.266.87 2.075v20.933l.148-.148c4.039-4.016 8.916-6.022 14.631-6.022s10.592 2.006 14.632 6.022zm-50.321 35.109c-9.853 0-14.78-4.897-14.78-14.69V54.114h-2.957c-.812 0-1.508-.288-2.085-.864-.581-.574-.87-1.266-.87-2.074 0-.81.289-1.499.87-2.074.577-.576 1.273-.864 2.085-.864h2.956v-14.69c0-.81.29-1.499.87-2.074.577-.576 1.275-.864 2.087-.864.812 0 1.509.288 2.085.864.58.575.87 1.265.87 2.074v14.69h5.949c.813 0 1.509.288 2.09.864.577.575.866 1.265.866 2.074 0 .808-.289 1.5-.866 2.074-.581.576-1.277.864-2.09.864h-5.948v20.565c0 5.878 2.955 8.815 8.868 8.815.812 0 1.508.288 2.086.863.579.576.87 1.266.87 2.075 0 .808-.291 1.5-.87 2.073-.578.577-1.274.864-2.086.864zm-38.644-46.273c-1.01 0-1.88-.36-2.604-1.083-.73-.722-1.091-1.586-1.091-2.59 0-1.002.361-1.864 1.091-2.588.724-.722 1.593-1.083 2.604-1.083 1.01 0 1.878.361 2.603 1.083.728.724 1.091 1.586 1.091 2.588 0 1.004-.363 1.868-1.091 2.59-.725.723-1.593 1.083-2.603 1.083zm-28.189 36.1c2.883-2.865 4.324-6.328 4.324-10.393 0-4.064-1.441-7.528-4.324-10.392-2.882-2.865-6.368-4.298-10.457-4.298-4.088 0-7.574 1.433-10.456 4.298-2.883 2.864-4.324 6.328-4.324 10.392 0 4.065 1.441 7.528 4.324 10.393 2.882 2.865 6.368 4.298 10.456 4.298 4.09 0 7.575-1.433 10.457-4.298zm4.175-24.936c4.04 4.016 6.06 8.863 6.06 14.543s-2.02 10.527-6.06 14.542c-4.04 4.015-8.918 6.024-14.632 6.024-5.716 0-10.592-2.009-14.631-6.024-4.042-4.015-6.062-8.862-6.062-14.542V33.475c0-.81.289-1.5.87-2.075.577-.574 1.275-.864 2.089-.864.811 0 1.505.29 2.085.864.579.576.87 1.266.87 2.075v20.933c.048-.05.098-.099.148-.148 4.039-4.016 8.915-6.022 14.631-6.022 5.714 0 10.591 2.006 14.632 6.022zm24.014-6.022c.812 0 1.508.288 2.088.864.576.575.867 1.265.867 2.073v35.256c0 .81-.29 1.5-.867 2.074-.58.577-1.276.864-2.088.864s-1.511-.287-2.088-.864c-.579-.574-.868-1.265-.868-2.074V51.175c0-.808.29-1.498.868-2.073.577-.576 1.276-.864 2.088-.864z" transform="translate(-190 -153) translate(190 153)"/>
                <g>
                    <path fill="#6D2077" d="M.706 66.63c0-.47.234-.875.642-1.11.202-.117.419-.177.643-.177.22 0 .443.061.641.176l19 10.97c.81.467 1.313 1.337 1.313 2.273v21.94c0 .47-.234.874-.642 1.11-.407.236-.877.236-1.285.002l-19-10.97C1.209 90.376.706 89.504.706 88.57V66.63z" transform="translate(-190 -153) translate(190 153)"/>
                    <path fill="#44B8AF" d="M26.78 16.45l49.422 28.534c.809.467 1.312 1.337 1.312 2.272v25.561c0 .934-.503 1.805-1.31 2.273L54.064 87.87c-.794.459-1.83.458-2.623 0L2.018 59.337C1.208 58.87.705 58 .705 57.065V31.503c0-.935.504-1.806 1.313-2.273l22.137-12.78c.404-.234.859-.35 1.313-.35.453 0 .908.116 1.311.35" transform="translate(-190 -153) translate(190 153)"/>
                    <path fill="#F6A000" d="M51.44.697c.81-.47 1.815-.467 2.624 0l19.43 11.218c.317.182.499.498.499.864s-.182.68-.5.863L54.065 24.86c-.809.468-1.814.468-2.622.002L32.009 13.642c-.316-.183-.497-.498-.497-.864 0-.365.181-.68.5-.866L51.44.697z" transform="translate(-190 -153) translate(190 153)"/>
                    <path fill="#FE5000" d="M104.798 57.065c0 .935-.503 1.806-1.312 2.273L83.364 70.955c-.18.105-.36.105-.537 0-.267-.154-.267-.387-.267-.463V47.256c0-2.732-1.47-5.276-3.836-6.644L58.602 28.995c-.067-.037-.268-.153-.268-.465 0-.307.201-.425.265-.462L78.724 16.45c.397-.228.851-.35 1.313-.35.46 0 .915.122 1.311.35l22.367 12.913c.668.385 1.083 1.105 1.083 1.877v25.826z" transform="translate(-190 -153) translate(190 153)"/>
                    <path fill="#82AD3A" d="M27.99 81.107c0-.078 0-.317.273-.474.032-.02.149-.08.283-.08.085 0 .17.027.26.077l20.112 11.612c.147.085.297.166.45.24 2.12 1.042 4.651 1.04 6.761.002.155-.074.308-.157.458-.244l47.391-27.36c.068-.04.272-.157.546.001.274.157.274.395.274.474V88.57c0 .935-.502 1.807-1.312 2.273l-49.422 28.533c-.81.47-1.814.468-2.623 0l-22.138-12.78c-.81-.467-1.313-1.338-1.313-2.272V81.107z" transform="translate(-190 -153) translate(190 153)"/>
                </g>
            </g>
        </g>
    </g>
</svg>
