<svg xmlns="http://www.w3.org/2000/svg" fill="none" aria-hidden="true" class="w-8 h-8 text-[var(--color-text)] hover:text-[var(--color-text-secondary)] transition-colors" pointer-events="auto" viewBox="0 0 41 41">
  <path fill="currentColor" fill-rule="evenodd" d="M19.646 7.11c.813-.188 1.5-.5 2.188-.938.812-.562 2.312-1.625 4.562-3.624.688-.563 1.688-1.063 3.125-.438.063.063.188.125.313.188.03 0 .046.015.062.03.016.016.031.032.063.032 6.437 3.312 10.875 10.06 10.875 17.81 0 11.06-8.938 19.996-20 19.996-11 0-20-8.936-20-19.996C.833 9.609 9.02.923 19.458.173 22.52.048 21.52 1.798 21.334 2.11c-.188.25-.375.5-.563.812-.468.681-1.226 1.39-1.74 1.873-.242.226-.43.402-.51.502 0 0-1.313 1.25-.625 1.75.375.25 1.063.25 1.75.062Zm2.5 24.183c4.313 0 6.938-2 8.5-4.937.125-.25.25-.562.188-.75a.34.34 0 0 0-.188-.312l-.595-.326c-.807-.443-.885-.486-1.092-.486-.125 0-.313.062-.375.187-1.5 2.125-3.563 3.125-5.375 3.125-3.313 0-5.438-2.188-6.375-4.562l12.312-5.374c.313-.125.375-.313.375-.563 0-3.187-3.063-8.186-8.688-8.186-5 0-10.062 3-10.062 10.873 0 6.124 4.375 11.31 11.375 11.31Zm-5.812-13.748c0-2.874 1.438-5.062 3.75-5.062 1.875 0 3.313 2 3.313 4.875l-6.688 3.562c-.313-1.063-.375-2.5-.375-3.375" clip-rule="evenodd"/>
</svg>
